<svg width="18" height="18" viewBox="0 0 18 18" fill="none" xmlns="http://www.w3.org/2000/svg">
<g clip-path="url(#clip0_736_668)">
<path d="M9 11.9999C7.81332 11.9999 6.65328 11.648 5.66658 10.9888C4.67989 10.3295 3.91085 9.3924 3.45673 8.29604C3.0026 7.19969 2.88378 5.99329 3.11529 4.8294C3.3468 3.66551 3.91825 2.59642 4.75736 1.7573C5.59648 0.918186 6.66558 0.346741 7.82946 0.11523C8.99335 -0.116281 10.1997 0.00253865 11.2961 0.456664C12.3925 0.91079 13.3295 1.67983 13.9888 2.66652C14.6481 3.65322 15 4.81325 15 5.99994C14.9982 7.59069 14.3655 9.11578 13.2407 10.2406C12.1158 11.3654 10.5908 11.9982 9 11.9999ZM9 13.4999C7.37551 13.5001 5.79541 12.9697 4.5 11.9894V16.1249C4.5 16.4782 4.59976 16.8242 4.7878 17.1232C4.97584 17.4222 5.24452 17.662 5.56287 17.815C5.88123 17.968 6.23633 18.0279 6.58727 17.9879C6.93821 17.9479 7.27072 17.8096 7.5465 17.5889L9 16.4249L10.4535 17.5874C10.7292 17.8081 11.0616 17.9463 11.4124 17.9864C11.7632 18.0264 12.1181 17.9666 12.4365 17.8138C12.7548 17.661 13.0235 17.4214 13.2116 17.1226C13.3998 16.8239 13.4997 16.478 13.5 16.1249V11.9894C12.2046 12.9697 10.6245 13.5001 9 13.4999Z" fill="#E8E8E8"/>
</g>
<defs>
<clipPath id="clip0_736_668">
<rect width="18" height="18" fill="white"/>
</clipPath>
</defs>
</svg>
