<svg width="18" height="18" viewBox="0 0 18 18" fill="none" xmlns="http://www.w3.org/2000/svg">
<g clip-path="url(#clip0_795_1594)">
<path d="M9.35927 10.6987V8.23949H17.646C17.727 8.66774 17.769 9.17474 17.769 9.72374C17.769 11.5687 17.265 13.8502 15.639 15.4755C14.058 17.1217 12.0383 18 9.36227 18C4.40177 18 0.231018 13.9597 0.231018 8.99999C0.231018 4.04024 4.40177 -7.62939e-06 9.36227 -7.62939e-06C12.1065 -7.62939e-06 14.061 1.07699 15.5295 2.48024L13.794 4.21499C12.741 3.22724 11.3138 2.45924 9.35927 2.45924C5.73752 2.45924 2.90477 5.37824 2.90477 8.99999C2.90477 12.6217 5.73752 15.5407 9.35927 15.5407C11.7083 15.5407 13.0463 14.5972 13.9035 13.74C14.5988 13.0447 15.0563 12.0517 15.2363 10.6957L9.35927 10.6987Z" fill="black"/>
</g>
<defs>
<clipPath id="clip0_795_1594">
<rect width="18" height="18" fill="white"/>
</clipPath>
</defs>
</svg>
